<svg viewBox="0 0 30 30" xmlns="http://www.w3.org/2000/svg" xmlns:xlink="http://www.w3.org/1999/xlink"><linearGradient id="a" gradientTransform="matrix(32 0 0 -32 5027.17 13175)" gradientUnits="userSpaceOnUse" x1="-156.96" x2="-156.3" y1="410.92" y2="411.58"><stop offset="0" stop-color="#ffc107"/><stop offset=".51" stop-color="#f44336"/><stop offset=".99" stop-color="#9c27b0"/></linearGradient><circle cx="15" cy="14.96" fill="url(#a)" r="15"/><g fill="#fff"><path d="m19.51 6h-9a4.54 4.54 0 0 0 -4.51 4.52v9a4.55 4.55 0 0 0 4.56 4.48h9a4.55 4.55 0 0 0 4.55-4.55v-8.93a4.55 4.55 0 0 0 -4.6-4.52zm2.58 13.49a2.57 2.57 0 0 1 -2.58 2.51h-9a2.56 2.56 0 0 1 -2.51-2.53v-8.95a2.57 2.57 0 0 1 2.56-2.52h9a2.58 2.58 0 0 1 2.58 2.57z"/><path d="m15 19.64a4.65 4.65 0 1 1 4.68-4.64 4.64 4.64 0 0 1 -4.68 4.64zm0-7.32a2.68 2.68 0 1 0 2.71 2.68 2.69 2.69 0 0 0 -2.71-2.68zm4.77-1a1.1 1.1 0 1 1 1.11-1.1 1.11 1.11 0 0 1 -1.07 1.1z"/></g></svg>