<svg viewBox="0 0 30 30" xmlns="http://www.w3.org/2000/svg"><circle cx="14.97" cy="14.98" fill="#55acee" r="15"/><path d="m24.16 10.76a7.05 7.05 0 0 1 -2.06.56 3.58 3.58 0 0 0 1.58-2 7.14 7.14 0 0 1 -2.28.87 3.55 3.55 0 0 0 -2.61-1.13 3.58 3.58 0 0 0 -3.59 3.58 3.68 3.68 0 0 0 .09.82 10.18 10.18 0 0 1 -7.39-3.73 3.61 3.61 0 0 0 1.1 4.79 3.57 3.57 0 0 1 -1.62-.45 3.58 3.58 0 0 0 2.87 3.51 3.62 3.62 0 0 1 -.94.13 2.93 2.93 0 0 1 -.67-.07 3.58 3.58 0 0 0 3.36 2.54 7.17 7.17 0 0 1 -4.46 1.54 7.92 7.92 0 0 1 -.85 0 10.19 10.19 0 0 0 15.69-8.59c0-.16 0-.31 0-.47a7.16 7.16 0 0 0 1.79-1.85z" fill="#fff"/></svg>